<svg xmlns="http://www.w3.org/2000/svg" viewBox="0 0 1200 900" role="img" aria-labelledby="title desc">
  <title id="title">北京冬季城市图鉴</title>
  <desc id="desc">A futuristic winter city travel poster with Beijing landmarks.</desc>
  <defs>
    <linearGradient id="bg" x1="0" x2="1" y1="0" y2="1">
      <stop stop-color="#071224"/>
      <stop offset="0.55" stop-color="#10132d"/>
      <stop offset="1" stop-color="#05070d"/>
    </linearGradient>
    <radialGradient id="glow" cx="70%" cy="20%" r="55%">
      <stop stop-color="#00e5ff" stop-opacity=".55"/>
      <stop offset="1" stop-color="#00e5ff" stop-opacity="0"/>
    </radialGradient>
    <filter id="blur"><feGaussianBlur stdDeviation="18"/></filter>
  </defs>
  <rect width="1200" height="900" fill="url(#bg)"/>
  <circle cx="900" cy="160" r="280" fill="url(#glow)"/>
  <path d="M0 650 C210 600 360 665 550 610 C760 548 940 610 1200 548 L1200 900 L0 900 Z" fill="#d7f7ff" opacity=".12"/>
  <path d="M120 565 H1080 V645 H120 Z" fill="#17223d"/>
  <path d="M190 520 H1010 V568 H190 Z" fill="#213051"/>
  <path d="M275 430 H925 V522 H275 Z" fill="#17223d"/>
  <path d="M350 350 H850 V432 H350 Z" fill="#27385d"/>
  <path d="M410 278 H790 V352 H410 Z" fill="#17223d"/>
  <path d="M510 210 H690 V280 H510 Z" fill="#2e426c"/>
  <path d="M260 520 L600 285 L940 520 Z" fill="none" stroke="#00e5ff" stroke-width="8" opacity=".5"/>
  <g fill="#f6fbff" opacity=".82">
    <circle cx="140" cy="160" r="3"/><circle cx="230" cy="230" r="4"/><circle cx="1030" cy="250" r="3"/>
    <circle cx="780" cy="95" r="3"/><circle cx="520" cy="155" r="4"/><circle cx="400" cy="90" r="3"/>
  </g>
  <text x="82" y="780" fill="#ffffff" font-family="Arial, sans-serif" font-size="60" font-weight="700">BEIJING WINTER</text>
  <text x="86" y="830" fill="#9ca3af" font-family="Arial, sans-serif" font-size="28">City atlas · Culture travel · AIGC visual</text>
</svg>
